<svg xmlns="http://www.w3.org/2000/svg" width="160" height="23" viewBox="0 0 160 23">
    <defs>
        <linearGradient id="a" x1="100%" x2="0%" y1="0%" y2="0%">
            <stop offset="0%" stop-color="#FFE001"/>
            <stop offset="100%" stop-color="#4DD4BD"/>
        </linearGradient>
    </defs>
    <g fill="none" fill-rule="evenodd">
        <path stroke="url(#a)" stroke-linecap="square" stroke-width="2" d="M.5 11h156" transform="translate(1)"/>
        <path fill="#F2DA01" fill-rule="nonzero" d="M148.527 22.666a.848.848 0 0 1-.598.236.848.848 0 0 1-.599-.236.78.78 0 0 1 0-1.14L157.854 11.5 147.33 1.474a.78.78 0 0 1 0-1.14.877.877 0 0 1 1.197 0l11.122 10.596a.78.78 0 0 1 0 1.14l-11.122 10.596z"/>
    </g>
</svg>
